<?xml version="1.0" encoding="UTF-8" standalone="no"?>
<svg
   version="1.0"
   width="768.000000pt"
   height="768.000000pt"
   viewBox="0 0 768.000000 768.000000"
   preserveAspectRatio="xMidYMid meet"
   id="svg10"
   sodipodi:docname="blurry_zoom.svg"
   inkscape:version="1.3.2 (091e20e, 2023-11-25)"
   inkscape:export-filename="blurry_purple_48.png"
   inkscape:export-xdpi="4.5"
   inkscape:export-ydpi="4.5"
   xml:space="preserve"
   xmlns:inkscape="http://www.inkscape.org/namespaces/inkscape"
   xmlns:sodipodi="http://sodipodi.sourceforge.net/DTD/sodipodi-0.dtd"
   xmlns="http://www.w3.org/2000/svg"
   xmlns:svg="http://www.w3.org/2000/svg"><defs
     id="defs10"><filter
       inkscape:menu-tooltip="Darkens the edge with an inner blur and adds a flexible glow"
       inkscape:menu="Shadows and Glows"
       inkscape:label="Dark and Glow"
       style="color-interpolation-filters:sRGB;"
       id="filter10"
       x="-0.0029002713"
       y="-0.0029231879"
       width="1.0062537"
       height="1.0063031"><feOffset
         dy="3"
         dx="3"
         id="feOffset10" /><feGaussianBlur
         stdDeviation="3"
         result="blur"
         id="feGaussianBlur10" /><feFlood
         flood-color="rgb(0,0,0)"
         flood-opacity="1"
         result="flood"
         id="feFlood10" /><feComposite
         in="flood"
         in2="SourceGraphic"
         operator="in"
         result="composite"
         id="feComposite10" /><feBlend
         in="blur"
         in2="composite"
         mode="normal"
         id="feBlend10"
         result="fbSourceGraphic" /><feColorMatrix
         result="fbSourceGraphicAlpha"
         in="fbSourceGraphic"
         values="0 0 0 -1 0 0 0 0 -1 0 0 0 0 -1 0 0 0 0 1 0"
         id="feColorMatrix10" /><feGaussianBlur
         id="feGaussianBlur11"
         stdDeviation="5"
         result="result6"
         in="fbSourceGraphic" /><feComposite
         id="feComposite11"
         result="result8"
         in="fbSourceGraphic"
         operator="atop"
         in2="result6" /><feComposite
         id="feComposite12"
         result="result9"
         operator="over"
         in2="fbSourceGraphicAlpha"
         in="result8" /><feColorMatrix
         id="feColorMatrix12"
         values="1 0 0 0 0 0 1 0 0 0 0 0 1 0 0 0 0 0 1 0 "
         result="result10" /><feBlend
         id="feBlend12"
         in="result10"
         mode="normal"
         in2="result6" /></filter></defs><sodipodi:namedview
     id="namedview10"
     pagecolor="#868686"
     bordercolor="#000000"
     borderopacity="0.25"
     inkscape:showpageshadow="2"
     inkscape:pageopacity="0.0"
     inkscape:pagecheckerboard="0"
     inkscape:deskcolor="#d1d1d1"
     inkscape:document-units="pt"
     inkscape:zoom="0.58691406"
     inkscape:cx="512"
     inkscape:cy="511.14809"
     inkscape:window-width="2560"
     inkscape:window-height="1387"
     inkscape:window-x="0"
     inkscape:window-y="25"
     inkscape:window-maximized="1"
     inkscape:current-layer="svg10" /><g
     transform="matrix(0.11513557,0,0,-0.11513557,-55.98654,821.0964)"
     fill="#000000"
     stroke="none"
     id="g10"
     style="fill:#cd67fe;fill-opacity:1;filter:url(#filter10)"><path
       d="m 3480,7065 c -342,-42 -616,-123 -915,-270 -383,-188 -701,-446 -937,-760 -204,-272 -327,-523 -393,-804 -64,-275 -61,-466 12,-641 74,-179 239,-377 361,-433 30,-14 28,-35 -9,-90 -41,-63 -105,-117 -187,-160 -87,-46 -150,-63 -302,-82 -194,-25 -347,-96 -443,-206 -53,-60 -119,-189 -141,-275 -23,-88 -21,-226 4,-308 40,-127 134,-206 247,-206 108,0 157,52 178,188 15,104 30,137 81,182 53,46 85,57 220,75 162,21 248,46 380,110 172,83 305,192 413,336 31,41 65,96 75,122 19,49 28,52 75,27 35,-19 -2,-242 -56,-343 -38,-71 -149,-185 -233,-241 -39,-25 -102,-67 -142,-93 -138,-91 -304,-276 -361,-403 -48,-106 -57,-134 -77,-231 -36,-175 -21,-341 41,-467 41,-84 123,-171 196,-207 50,-26 69,-30 138,-30 44,0 97,6 119,14 90,31 156,133 156,241 0,28 -12,84 -27,127 -40,117 -39,224 4,315 38,82 103,153 214,233 161,118 234,181 324,282 160,178 252,380 262,568 l 5,101 47,-6 46,-5 -3,-197 c -4,-315 -39,-417 -234,-679 -176,-236 -239,-358 -283,-544 -56,-239 -35,-516 54,-695 35,-70 125,-191 182,-246 129,-123 317,-137 422,-31 51,51 70,106 68,201 -1,84 -10,113 -71,236 -66,131 -81,187 -81,297 0,179 45,289 216,528 156,219 212,332 261,524 21,82 26,129 31,323 l 6,227 51,-2 51,-2 v -345 c 0,-337 -1,-349 -30,-520 -26,-152 -30,-200 -30,-370 0,-220 6,-257 81,-517 44,-150 47,-165 51,-313 6,-179 -16,-345 -62,-466 -66,-174 -78,-219 -83,-316 -4,-87 -2,-100 19,-138 21,-37 92,-89 216,-158 58,-32 145,6 216,94 114,141 161,236 216,439 57,211 64,260 64,425 0,185 -12,268 -63,460 -61,227 -74,313 -73,500 0,126 6,197 23,300 21,122 24,172 27,524 l 4,389 49,4 50,4 v -93 c 1,-176 19,-402 40,-487 40,-164 111,-308 239,-480 105,-143 160,-243 197,-357 56,-170 43,-295 -47,-485 -85,-181 -87,-285 -6,-390 66,-87 201,-122 319,-84 139,47 317,342 357,595 22,137 1,379 -45,518 -38,114 -155,315 -261,447 -122,153 -182,282 -202,431 -6,43 -12,161 -15,260 l -4,182 30,6 c 54,11 55,10 61,-71 17,-199 68,-327 206,-513 81,-108 146,-170 329,-308 176,-134 228,-190 262,-279 34,-92 36,-170 6,-306 -38,-172 -32,-233 28,-312 41,-54 97,-78 192,-83 72,-4 88,-1 141,23 148,66 256,260 270,485 21,354 -139,640 -497,883 -269,182 -350,300 -366,532 -6,76 -4,92 9,104 22,18 31,10 76,-68 62,-105 125,-183 198,-246 187,-160 375,-242 638,-280 150,-22 179,-32 236,-83 51,-46 63,-73 89,-205 21,-104 81,-151 195,-151 59,0 79,4 123,29 93,50 132,147 132,325 0,176 -32,281 -121,401 -92,124 -228,192 -476,239 -286,53 -414,115 -494,239 -16,25 -29,50 -29,57 0,6 30,34 68,62 255,190 365,433 348,772 -10,223 -63,404 -187,652 -154,304 -338,548 -575,760 -444,398 -965,631 -1533,688 -139,14 -521,11 -651,-5 z m 571,-176 c 179,-13 429,-66 618,-128 357,-118 683,-323 972,-611 197,-196 322,-375 449,-644 112,-238 143,-370 144,-611 1,-142 -2,-168 -22,-230 -47,-140 -158,-271 -322,-380 -232,-154 -559,-276 -910,-340 -477,-87 -787,-111 -1280,-102 -374,8 -537,23 -915,87 -452,76 -649,134 -913,270 -325,167 -491,395 -492,676 0,199 39,398 116,586 86,209 166,342 325,538 205,252 534,501 864,656 136,63 200,87 367,133 346,97 652,128 999,100 z M 1933,3965 c 20,-7 37,-20 37,-27 0,-34 -98,-178 -166,-243 -144,-139 -333,-220 -592,-254 -164,-22 -198,-34 -295,-105 -68,-50 -90,-82 -129,-189 -35,-98 -50,-107 -81,-47 -15,28 -17,53 -15,125 3,83 7,96 42,158 48,87 83,127 153,173 80,53 134,71 285,94 146,22 205,39 288,81 118,59 259,183 299,263 l 22,46 57,-30 c 31,-17 74,-37 95,-45 z m 3938,16 c 43,-69 157,-169 237,-210 81,-41 246,-88 374,-107 217,-32 314,-88 401,-231 49,-82 70,-159 65,-248 -4,-84 -24,-118 -67,-113 -22,2 -29,12 -44,58 -42,125 -51,145 -83,180 -35,38 -121,89 -194,115 -22,8 -93,22 -158,31 -315,43 -583,196 -685,391 -54,104 -53,110 18,139 33,14 67,31 75,39 8,8 17,15 20,15 3,-1 21,-27 41,-59 z m -3357,-190 79,-15 -6,-82 c -8,-106 -29,-188 -78,-292 -86,-184 -208,-319 -422,-463 -161,-109 -222,-171 -275,-279 -78,-157 -89,-292 -37,-453 31,-97 31,-112 0,-142 -69,-70 -214,17 -256,153 -22,72 -22,229 0,337 45,221 158,370 401,532 152,102 227,169 324,293 83,105 156,288 156,388 0,48 2,53 18,47 9,-4 52,-15 96,-24 z m 2716,-29 c 0,-105 49,-238 133,-362 48,-71 175,-192 262,-250 236,-157 342,-267 435,-449 58,-115 78,-341 40,-462 -51,-168 -163,-245 -249,-173 -38,32 -39,55 -4,153 49,142 41,306 -22,430 -50,100 -110,166 -231,257 -192,142 -280,220 -354,312 -136,169 -185,307 -195,546 0,5 33,18 74,28 41,10 77,20 79,23 3,3 11,5 19,5 9,0 13,-16 13,-58 z m -2067,-74 c 61,-3 68,-5 74,-26 3,-12 3,-114 0,-225 -4,-162 -9,-218 -26,-282 -45,-169 -99,-278 -226,-455 -155,-216 -189,-282 -235,-450 -29,-109 -32,-264 -6,-360 19,-71 70,-178 116,-245 54,-78 53,-151 -3,-185 -42,-26 -63,-25 -123,5 -39,20 -59,39 -101,102 -104,156 -129,234 -140,424 -12,229 32,421 135,584 31,49 98,144 147,210 125,167 182,261 215,358 38,109 50,205 50,399 v 160 l 28,-6 c 15,-3 58,-7 95,-8 z m 1417,-45 c 0,-27 3,-109 6,-183 13,-316 63,-446 287,-755 193,-266 267,-477 254,-725 -7,-129 -27,-208 -81,-325 -66,-141 -123,-195 -206,-195 -49,0 -86,33 -96,88 -6,29 1,50 48,141 66,128 84,180 97,288 19,153 -17,329 -96,472 -19,36 -73,115 -119,177 -227,302 -283,479 -284,885 v 157 l 68,9 c 126,19 122,20 122,-34 z m -665,-191 c 10,-254 0,-523 -26,-720 -26,-199 -29,-440 -6,-567 9,-50 35,-151 57,-225 52,-172 70,-285 70,-435 0,-202 -43,-421 -122,-624 -75,-191 -174,-253 -238,-149 -30,49 -25,102 25,255 91,278 110,393 102,613 -4,125 -10,164 -42,285 -62,237 -73,287 -86,383 -17,134 -7,357 25,535 31,176 43,368 41,647 l -2,205 98,-3 97,-3 z"
       id="path1"
       style="fill:#cd67fe;fill-opacity:1" /><path
       d="m 3211,6628 c -152,-81 -68,-276 110,-255 69,8 109,34 138,89 23,41 24,49 13,87 -19,62 -68,95 -151,99 -55,3 -74,-1 -110,-20 z"
       id="path2"
       style="fill:#cd67fe;fill-opacity:1" /><path
       d="m 4236,6640 c -65,-20 -113,-94 -102,-155 9,-44 63,-100 106,-109 94,-18 157,-2 204,54 34,41 36,114 4,155 -42,54 -135,78 -212,55 z"
       id="path3"
       style="fill:#cd67fe;fill-opacity:1" /><path
       d="m 3727,6466 c -116,-32 -162,-151 -91,-236 52,-61 192,-77 282,-31 60,30 82,64 82,124 0,44 -4,54 -38,87 -54,55 -154,78 -235,56 z"
       id="path4"
       style="fill:#cd67fe;fill-opacity:1" /><path
       d="m 2421,6224 c -19,-8 -78,-58 -132,-112 -76,-76 -99,-105 -104,-134 -14,-77 35,-148 102,-148 79,0 160,58 252,181 49,65 61,87 61,117 0,88 -89,135 -179,96 z"
       id="path5"
       style="fill:#cd67fe;fill-opacity:1" /><path
       d="m 2793,5560 c -116,-25 -220,-107 -269,-213 -27,-57 -29,-71 -29,-177 0,-106 2,-120 29,-178 72,-157 262,-251 427,-212 151,35 272,164 311,329 35,152 -72,358 -221,425 -66,29 -178,41 -248,26 z m 135,-164 c 85,-47 80,-194 -8,-238 -115,-58 -229,23 -206,146 7,35 46,82 81,97 31,12 107,10 133,-5 z"
       id="path6"
       style="fill:#cd67fe;fill-opacity:1" /><path
       d="m 4658,5551 c -118,-38 -199,-106 -245,-207 -74,-163 -37,-355 94,-474 76,-69 144,-94 263,-94 83,-1 102,3 152,26 114,53 189,149 224,288 14,54 14,75 5,134 -41,244 -272,397 -493,327 z m 184,-181 c 40,-39 40,-41 36,-100 -5,-66 -23,-94 -75,-116 -77,-33 -153,-8 -184,59 -24,53 -24,69 1,116 26,53 73,81 134,81 43,0 53,-4 88,-40 z"
       id="path7"
       style="fill:#cd67fe;fill-opacity:1" /><path
       d="m 3488,5001 c -27,-24 -33,-36 -32,-70 2,-51 51,-136 115,-196 141,-132 418,-104 533,53 71,98 84,157 45,206 -17,21 -29,26 -65,26 -63,0 -80,-12 -99,-70 -28,-83 -108,-130 -199,-115 -80,14 -130,56 -142,121 -14,73 -97,97 -156,45 z"
       id="path8"
       style="fill:#cd67fe;fill-opacity:1" /><path
       d="m 2365,4701 c -47,-12 -74,-29 -90,-61 -25,-48 -19,-78 23,-120 35,-35 43,-38 116,-45 44,-4 113,-5 154,-2 83,6 113,25 132,83 14,40 -6,94 -43,118 -41,28 -221,44 -292,27 z"
       id="path9"
       style="fill:#cd67fe;fill-opacity:1" /><path
       d="m 5057,4700 c -110,-21 -150,-125 -76,-196 l 30,-29 123,2 c 67,1 140,8 161,15 48,16 85,67 85,115 0,80 -44,104 -187,102 -54,-1 -115,-5 -136,-9 z"
       id="path10"
       style="fill:#cd67fe;fill-opacity:1" /></g></svg>
